# Rhino

mtllib glazing.mtl
o object_1
usemtl diffuse_Black
v -504.97219848632813 40.856689453125 1
v -504.97219848632813 40.856689453125 4
v -497.97222900390625 40.8468017578125 1
v -497.97222900390625 40.8468017578125 4
vt 0 0
vt 0 1
vt 1 0
vt 1 1
vn -0.0014127603499218822 -0.99999898672103882 0
vn -0.0014127603499218822 -0.99999898672103882 0
vn -0.0014127603499218822 -0.99999898672103882 0
vn -0.0014127603499218822 -0.99999898672103882 0
f 4/4/4 2/2/2 1/1/1 3/3/3
o object_2
usemtl diffuse_Black
v -510.22219848632813 40.864105224609375 1
v -510.22219848632813 40.864105224609375 4
v -507.022216796875 40.859584808349609 1
v -507.022216796875 40.859584808349609 4
vt 0 0
vt 0 1
vt 1 0
vt 1 1
vn -0.0014127603499218822 -0.99999898672103882 0
vn -0.0014127603499218822 -0.99999898672103882 0
vn -0.0014127603499218822 -0.99999898672103882 0
vn -0.0014127603499218822 -0.99999898672103882 0
f 8/8/8 6/6/6 5/5/5 7/7/7
o object_3
usemtl diffuse_Black
v -514.717041015625 44.532962799072266 3
v -514.717041015625 44.532962799072266 1
v -514.7203369140625 42.207962036132813 3
v -514.7203369140625 42.207962036132813 1
vt 0 0
vt 0 1
vt 1 0
vt 1 1
vn 0.99999898672103882 -0.0014127603499218822 0
vn 0.99999898672103882 -0.0014127603499218822 0
vn 0.99999898672103882 -0.0014127603499218822 0
vn 0.99999898672103882 -0.0014127603499218822 0
f 12/12/12 10/10/10 9/9/9 11/11/11
o object_4
usemtl diffuse_Black
v -514.717041015625 44.532962799072266 8
v -514.717041015625 44.532962799072266 6
v -514.7203369140625 42.207962036132813 8
v -514.7203369140625 42.207962036132813 6
vt 0 0
vt 0 1
vt 1 0
vt 1 1
vn 0.99999898672103882 -0.0014127603499218822 0
vn 0.99999898672103882 -0.0014127603499218822 0
vn 0.99999898672103882 -0.0014127603499218822 0
vn 0.99999898672103882 -0.0014127603499218822 0
f 16/16/16 14/14/14 13/13/13 15/15/15
o object_5
usemtl diffuse_Black
v -514.69744873046875 58.370445251464844 3
v -514.69744873046875 58.370445251464844 1
v -514.71160888671875 48.370456695556641 3
v -514.71160888671875 48.370456695556641 1
vt 0 0
vt 0 1
vt 1 0
vt 1 1
vn 0.99999898672103882 -0.0014127603499218822 0
vn 0.99999898672103882 -0.0014127603499218822 0
vn 0.99999898672103882 -0.0014127603499218822 0
vn 0.99999898672103882 -0.0014127603499218822 0
f 20/20/20 18/18/18 17/17/17 19/19/19
o object_6
usemtl diffuse_Black
v -514.69744873046875 58.370445251464844 8
v -514.69744873046875 58.370445251464844 6
v -514.71160888671875 48.370456695556641 8
v -514.71160888671875 48.370456695556641 6
vt 0 0
vt 0 1
vt 1 0
vt 1 1
vn 0.99999898672103882 -0.0014127603499218822 0
vn 0.99999898672103882 -0.0014127603499218822 0
vn 0.99999898672103882 -0.0014127603499218822 0
vn 0.99999898672103882 -0.0014127603499218822 0
f 24/24/24 22/22/22 21/21/21 23/23/23
o object_7
usemtl diffuse_Black
v -514.69744873046875 58.370445251464844 13
v -514.69744873046875 58.370445251464844 11
v -514.71160888671875 48.370456695556641 13
v -514.71160888671875 48.370456695556641 11
vt 0 0
vt 0 1
vt 1 0
vt 1 1
vn 0.99999898672103882 -0.0014127603499218822 0
vn 0.99999898672103882 -0.0014127603499218822 0
vn 0.99999898672103882 -0.0014127603499218822 0
vn 0.99999898672103882 -0.0014127603499218822 0
f 28/28/28 26/26/26 25/25/25 27/27/27
o object_8
usemtl diffuse_Black
v -507.32675170898438 60.860034942626953 1
v -507.32675170898438 60.860034942626953 4
v -502.83084106445313 60.853683471679688 1
v -502.83084106445313 60.853683471679688 4
vt 0 0
vt 0 1
vt 1 0
vt 1 1
vn -0.0014127603499218822 -0.99999898672103882 0
vn -0.0014127603499218822 -0.99999898672103882 0
vn -0.0014127603499218822 -0.99999898672103882 0
vn -0.0014127603499218822 -0.99999898672103882 0
f 32/32/32 30/30/30 29/29/29 31/31/31
o object_9
usemtl diffuse_Black
v -513.88433837890625 60.869300842285156 6
v -513.88433837890625 60.869300842285156 9
v -509.388427734375 60.862949371337891 6
v -509.388427734375 60.862949371337891 9
vt 0 0
vt 0 1
vt 1 0
vt 1 1
vn -0.0014127603499218822 -0.99999898672103882 0
vn -0.0014127603499218822 -0.99999898672103882 0
vn -0.0014127603499218822 -0.99999898672103882 0
vn -0.0014127603499218822 -0.99999898672103882 0
f 36/36/36 34/34/34 33/33/33 35/35/35
o object_10
usemtl diffuse_Black
v -507.32675170898438 60.860034942626953 6
v -507.32675170898438 60.860034942626953 9
v -502.83084106445313 60.853683471679688 6
v -502.83084106445313 60.853683471679688 9
vt 0 0
vt 0 1
vt 1 0
vt 1 1
vn -0.0014127603499218822 -0.99999898672103882 0
vn -0.0014127603499218822 -0.99999898672103882 0
vn -0.0014127603499218822 -0.99999898672103882 0
vn -0.0014127603499218822 -0.99999898672103882 0
f 40/40/40 38/38/38 37/37/37 39/39/39
o object_11
usemtl diffuse_Black
v -501.22222900390625 40.851390838623047 14.5
v -501.22222900390625 40.851390838623047 10.5
v -497.72222900390625 40.846446990966797 14.5
v -497.72222900390625 40.846446990966797 10.5
vt 0 0
vt 0 1
vt 1 0
vt 1 1
vn 0.0014127603499218822 0.99999898672103882 0
vn 0.0014127603499218822 0.99999898672103882 0
vn 0.0014127603499218822 0.99999898672103882 0
vn 0.0014127603499218822 0.99999898672103882 0
f 44/44/44 42/42/42 41/41/41 43/43/43
o object_12
usemtl diffuse_Black
v -506.22219848632813 40.858455657958984 9.5
v -506.22219848632813 40.858455657958984 5.5
v -502.72219848632813 40.853511810302734 9.5
v -502.72219848632813 40.853511810302734 5.5
vt 0 0
vt 0 1
vt 1 0
vt 1 1
vn 0.0014127603499218822 0.99999898672103882 0
vn 0.0014127603499218822 0.99999898672103882 0
vn 0.0014127603499218822 0.99999898672103882 0
vn 0.0014127603499218822 0.99999898672103882 0
f 48/48/48 46/46/46 45/45/45 47/47/47
o object_13
usemtl diffuse_Black
v -501.22222900390625 40.851390838623047 9.5
v -501.22222900390625 40.851390838623047 5.5
v -497.72222900390625 40.846446990966797 9.5
v -497.72222900390625 40.846446990966797 5.5
vt 0 0
vt 0 1
vt 1 0
vt 1 1
vn 0.0014127603499218822 0.99999898672103882 0
vn 0.0014127603499218822 0.99999898672103882 0
vn 0.0014127603499218822 0.99999898672103882 0
vn 0.0014127603499218822 0.99999898672103882 0
f 52/52/52 50/50/50 49/49/49 51/51/51
o object_14
usemtl diffuse_Black
v -513.72222900390625 40.869052886962891 9.5
v -513.72222900390625 40.869052886962891 5.5
v -510.22219848632813 40.864105224609375 9.5
v -510.22219848632813 40.864105224609375 5.5
vt 0 0
vt 0 1
vt 1 0
vt 1 1
vn 0.0014127603499218822 0.99999898672103882 0
vn 0.0014127603499218822 0.99999898672103882 0
vn 0.0014127603499218822 0.99999898672103882 0
vn 0.0014127603499218822 0.99999898672103882 0
f 56/56/56 54/54/54 53/53/53 55/55/55
o object_15
usemtl diffuse_Black
v -514.717041015625 44.532962799072266 13
v -514.717041015625 44.532962799072266 11
v -514.7203369140625 42.207962036132813 13
v -514.7203369140625 42.207962036132813 11
vt 0 0
vt 0 1
vt 1 0
vt 1 1
vn 0.99999898672103882 -0.0014127603499218822 0
vn 0.99999898672103882 -0.0014127603499218822 0
vn 0.99999898672103882 -0.0014127603499218822 0
vn 0.99999898672103882 -0.0014127603499218822 0
f 60/60/60 58/58/58 57/57/57 59/59/59
o object_16
usemtl diffuse_Black
v -513.88433837890625 60.869300842285156 1
v -513.88433837890625 60.869300842285156 4
v -509.388427734375 60.862949371337891 1
v -509.388427734375 60.862949371337891 4
vt 0 0
vt 0 1
vt 1 0
vt 1 1
vn -0.0014127603499218822 -0.99999898672103882 0
vn -0.0014127603499218822 -0.99999898672103882 0
vn -0.0014127603499218822 -0.99999898672103882 0
vn -0.0014127603499218822 -0.99999898672103882 0
f 64/64/64 62/62/62 61/61/61 63/63/63
o object_17
usemtl diffuse_Black
v -507.32675170898438 60.860034942626953 11
v -507.32675170898438 60.860034942626953 14
v -502.83084106445313 60.853683471679688 11
v -502.83084106445313 60.853683471679688 14
vt 0 0
vt 0 1
vt 1 0
vt 1 1
vn -0.0014127603499218822 -0.99999898672103882 0
vn -0.0014127603499218822 -0.99999898672103882 0
vn -0.0014127603499218822 -0.99999898672103882 0
vn -0.0014127603499218822 -0.99999898672103882 0
f 68/68/68 66/66/66 65/65/65 67/67/67
o object_18
usemtl diffuse_Black
v -513.88433837890625 60.869300842285156 11
v -513.88433837890625 60.869300842285156 14
v -509.388427734375 60.862949371337891 11
v -509.388427734375 60.862949371337891 14
vt 0 0
vt 0 1
vt 1 0
vt 1 1
vn -0.0014127603499218822 -0.99999898672103882 0
vn -0.0014127603499218822 -0.99999898672103882 0
vn -0.0014127603499218822 -0.99999898672103882 0
vn -0.0014127603499218822 -0.99999898672103882 0
f 72/72/72 70/70/70 69/69/69 71/71/71
o object_19
usemtl diffuse_Black
v -496.70208740234375 55.095020294189453 13.340679168701172
v -496.70208740234375 55.095020294189453 11.340679168701172
v -496.71621704101563 45.09503173828125 13.340679168701172
v -496.71621704101563 45.09503173828125 11.340679168701172
vt 0 0
vt 0 1
vt 1 0
vt 1 1
vn 0.99999898672103882 -0.0014127603499218822 0
vn 0.99999898672103882 -0.0014127603499218822 0
vn 0.99999898672103882 -0.0014127603499218822 0
vn 0.99999898672103882 -0.0014127603499218822 0
f 76/76/76 74/74/74 73/73/73 75/75/75
o object_20
usemtl diffuse_Black
v -513.72222900390625 40.869052886962891 14.5
v -513.72222900390625 40.869052886962891 10.5
v -510.22219848632813 40.864105224609375 14.5
v -510.22219848632813 40.864105224609375 10.5
vt 0 0
vt 0 1
vt 1 0
vt 1 1
vn 0.0014127603499218822 0.99999898672103882 0
vn 0.0014127603499218822 0.99999898672103882 0
vn 0.0014127603499218822 0.99999898672103882 0
vn 0.0014127603499218822 0.99999898672103882 0
f 80/80/80 78/78/78 77/77/77 79/79/79
o object_21
usemtl diffuse_Black
v -506.22219848632813 40.858455657958984 14.5
v -506.22219848632813 40.858455657958984 10.5
v -502.72219848632813 40.853511810302734 14.5
v -502.72219848632813 40.853511810302734 10.5
vt 0 0
vt 0 1
vt 1 0
vt 1 1
vn 0.0014127603499218822 0.99999898672103882 0
vn 0.0014127603499218822 0.99999898672103882 0
vn 0.0014127603499218822 0.99999898672103882 0
vn 0.0014127603499218822 0.99999898672103882 0
f 84/84/84 82/82/82 81/81/81 83/83/83
